<svg xmlns="http://www.w3.org/2000/svg" viewBox="0 0 627.86 184.49"><defs><style>.cls-1{fill:#008641;fill-rule:evenodd;}.cls-2{fill:#ed1c24;}.cls-3{fill:#231f20;}</style></defs><g id="Layer_2" data-name="Layer 2"><g id="Layer_1-2" data-name="Layer 1"><path class="cls-1" d="M622.93.79V25.06h-15C588.59,25,577.31,62.91,604,68.21v-19h23.83V95.12c-41.46,0-64.58-8.2-65.28-48.89C562.05,22.05,581.27,1,606.42.79ZM508,.79V24.53H493.48c-4.06.53-4.85,4.06-2.83,6.79l19.5,19.23c14.74,14.48-2.28,44.57-21.08,44.57h-33V68.48h25c4.23-.19,5.83-7,2.65-10l-20.82-19C452.45,26.65,458.36,1,481.75,1ZM353.38,95.39l36.25-95h30.44l33.45,95H425.64l-5-15.63H393.33l6.79-21h13.07L403.05,34.51,380.73,95.39ZM522.86.79v94.6h32.83V.79ZM317.11.54V95.39h32.81V.79Zm-94.84,0V95.39H248.2V51.26l26.21,44.13h27.25V.79H274V46L247.32.79Zm-66.1,29.37L140.38,1H110.29L99.44,94.76h30.8l5.46-51.52,20.47,33.7,20.39-33.7,5.55,51.52h30.53L202.06,1H172ZM47.74,0A47.74,47.74,0,1,1,0,47.83,47.78,47.78,0,0,1,47.74,0Zm0,26A21.79,21.79,0,1,1,26,47.83,21.75,21.75,0,0,1,47.74,26Z"/><polygon class="cls-2" points="0.18 127.41 627.86 127.41 627.86 117.88 0.18 117.81 0.18 127.41"/><path class="cls-3" d="M16.24,184.24H12L.44,150.53H6l8.13,24.53,8.12-24.53h5.54Z"/><path class="cls-3" d="M32.65,184.24V150.53h5.46v33.71Z"/><path class="cls-3" d="M47.29,184.24V150.53H69.8V155H52.59v9.88H67.23v4.5H52.59v10.23H69.8v4.6Z"/><path class="cls-3" d="M98.74,184.24,82.42,160.49v23.75h-5.3V150.53h4.93l16.24,23.65V150.53h5.29v33.71Z"/><path class="cls-3" d="M134.39,184.24l-16.25-23.75v23.75H113V150.53h4.76l16.23,23.65V150.53h5.38v33.71Z"/><path class="cls-3" d="M168.7,184.24l-2.38-6.81H152.47l-2.29,6.81h-5.74l12.71-33.71h4.32l13,33.71Zm-9.17-26-5.48,14.91h10.86Z"/><path class="cls-3" d="M191.46,184.24V150.53h5.29v33.71Z"/><path class="cls-3" d="M227.74,184.24l-16.33-23.75v23.75H206V150.53H211l16.15,23.65V150.53h5.38v33.71Z"/><path class="cls-3" d="M251.12,184.49c-5.3,0-9.1-1.23-12.36-4.57l3.54-3.28c2.46,2.48,5.38,3.28,8.9,3.28,4.67,0,7.14-1.86,7.14-5.21a4.84,4.84,0,0,0-1.24-3.54c-.88-.79-1.83-1.14-4-1.41l-4.06-.52a10.57,10.57,0,0,1-6.61-2.83c-1.76-1.4-2.56-3.62-2.56-6.35,0-5.83,4.33-9.7,11.54-9.7,4.77,0,8,1.13,10.95,3.69L259,157.32c-2-2-4.5-2.55-7.58-2.55-4.15,0-6.26,2.2-6.26,5.19a3.43,3.43,0,0,0,1.22,3,6.38,6.38,0,0,0,3.88,1.59l4.06.7c3.27.36,5.13,1.15,6.45,2.38a8.31,8.31,0,0,1,2.91,6.8C263.64,180.79,258.34,184.49,251.12,184.49Z"/><path class="cls-3" d="M283,184.49c-7.23,0-12.53-4.67-12.53-11.71V150.53h5.3v22.05c0,4.69,2.91,7.34,7.23,7.34,4.5,0,7.32-2.65,7.32-7.34V150.53h5.3v22.25C295.58,179.82,290.1,184.49,283,184.49Z"/><path class="cls-3" d="M323.73,184.24l-7.41-14.31h-6.79v14.31h-5.3V150.53H317.9c6.54,0,10.86,4.15,10.86,9.88,0,4.85-3,7.76-7,8.83l8,15ZM317.55,155h-8v10.59h8c3.44,0,5.9-1.87,5.9-5.21S321,155,317.55,155Z"/><path class="cls-3" d="M356.9,184.24l-2.46-6.81H340.58l-2.39,6.81h-5.55l12.79-33.71h4.24l12.89,33.71Zm-9.27-26-5.47,14.91H353Z"/><path class="cls-3" d="M389.2,184.24,373,160.49v23.75h-5.46V150.53h5l16.14,23.65V150.53h5.38v33.71Z"/><path class="cls-3" d="M414.69,184.49a13.09,13.09,0,0,1-9.17-3.61c-3.53-3.35-3.45-7-3.45-13.5s-.08-10.24,3.45-13.5a12.65,12.65,0,0,1,9.17-3.52,12.91,12.91,0,0,1,9.72,3.87l-3.54,3.44c-1.85-1.76-3.18-2.73-6.18-2.73a7.42,7.42,0,0,0-5.21,1.86c-1.67,1.85-2,3.79-2,10.58s.28,8.73,2,10.49a7.14,7.14,0,0,0,5.21,2c3,0,4.33-1.16,6.18-3l3.54,3.54A13,13,0,0,1,414.69,184.49Z"/><path class="cls-3" d="M431.71,184.24V150.53h22.42V155h-17v9.88h14.57v4.5H437.09v10.23h17v4.6Z"/><path class="cls-3" d="M494.36,180.44a12.59,12.59,0,0,1-9.62,4.05,13.35,13.35,0,0,1-9.08-3.61c-3.35-3.35-3.35-7-3.35-13.5s0-10.24,3.35-13.5a12.73,12.73,0,0,1,9.08-3.52c4.78,0,7.51,1.33,10.76,4.41l-3.7,3.43c-2.28-2.21-3.79-3.26-7.06-3.26a7.46,7.46,0,0,0-5,1.93c-1.76,1.78-2,3.72-2,10.51s.26,8.73,2,10.49a7,7,0,0,0,5,2,7.36,7.36,0,0,0,5.75-2.39,8.05,8.05,0,0,0,1.67-5.38v-1.86h-7.42v-4.15h12.71v5C497.45,175.32,496.75,178.15,494.36,180.44Z"/><path class="cls-3" d="M524.63,184.24l-7.42-14.31H510.6v14.31h-5.39V150.53h13.51c6.81,0,11,4.15,11,9.88,0,4.85-3,7.76-7.06,8.83l8.12,15ZM518.27,155H510.6v10.59h7.67c3.8,0,6.19-1.87,6.19-5.21S522.07,155,518.27,155Z"/><path class="cls-3" d="M558.34,180.88a14.12,14.12,0,0,1-9.45,3.61,13.4,13.4,0,0,1-9.17-3.61c-3.53-3.35-3.43-7-3.43-13.5s-.1-10.24,3.43-13.5a12.93,12.93,0,0,1,9.17-3.52,13.62,13.62,0,0,1,9.45,3.52c3.25,3.26,3.18,7,3.18,13.5S561.59,177.53,558.34,180.88Zm-4.15-24a7.7,7.7,0,0,0-5.3-1.93,7.48,7.48,0,0,0-5.11,1.93c-1.76,1.78-2.11,3.72-2.11,10.51s.35,8.47,2.11,10.49a7,7,0,0,0,5.11,2,7.24,7.24,0,0,0,5.3-2c1.76-2,2-3.69,2-10.49S556,158.65,554.19,156.87Z"/><path class="cls-3" d="M581.54,184.49c-7.15,0-12.44-4.67-12.44-11.71V150.53h5.21v22.05c0,4.69,2.9,7.34,7.23,7.34s7.33-2.65,7.33-7.34V150.53h5.28v22.25C594.15,179.82,588.59,184.49,581.54,184.49Z"/><path class="cls-3" d="M616.21,170.92h-7.94v13.32H602.9V150.53h13.31c6.79,0,11.12,4.41,11.12,10.14C627.33,166.67,623,170.92,616.21,170.92ZM616,155h-7.77v11.29H616c3.52,0,6-2,6-5.65S619.56,155,616,155Z"/></g></g></svg>